<mxfile host="app.diagrams.net" modified="2023-09-06T17:44:57.214Z" agent="Mozilla/5.0 (Windows NT 10.0; Win64; x64) AppleWebKit/537.36 (KHTML, like Gecko) Chrome/116.0.0.0 Safari/537.36" version="21.7.2" etag="e4tnP2DlDMKAo9xeEv29" type="github">
  <diagram name="Page-1" id="Sx1gSTS2eICECDE1R3i_">
    <mxGraphModel>
      <root>
        <mxCell id="0" />
        <mxCell id="1" parent="0" />
      </root>
    </mxGraphModel>
  </diagram>
</mxfile>
